<svg width="14" height="8" viewBox="0 0 14 8" fill="none" xmlns="http://www.w3.org/2000/svg">
<path fill-rule="evenodd" clip-rule="evenodd" d="M0.645643 0.64494C0.692088 0.598377 0.747264 0.561434 0.808009 0.536228C0.868754 0.511021 0.933875 0.498047 0.999643 0.498047C1.06541 0.498047 1.13053 0.511021 1.19128 0.536228C1.25202 0.561434 1.3072 0.598377 1.35364 0.64494L6.99964 6.29194L12.6456 0.64494C12.6921 0.598452 12.7473 0.561576 12.8081 0.536417C12.8688 0.511258 12.9339 0.498309 12.9996 0.498309C13.0654 0.498309 13.1305 0.511258 13.1912 0.536417C13.252 0.561576 13.3072 0.598452 13.3536 0.64494C13.4001 0.691428 13.437 0.746617 13.4622 0.807357C13.4873 0.868096 13.5003 0.933197 13.5003 0.99894C13.5003 1.06468 13.4873 1.12978 13.4622 1.19052C13.437 1.25126 13.4001 1.30645 13.3536 1.35294L7.35364 7.35294C7.3072 7.3995 7.25202 7.43645 7.19128 7.46165C7.13053 7.48686 7.06541 7.49983 6.99964 7.49983C6.93388 7.49983 6.86875 7.48686 6.80801 7.46165C6.74726 7.43645 6.69209 7.3995 6.64564 7.35294L0.645643 1.35294C0.599079 1.30649 0.562137 1.25132 0.53693 1.19057C0.511724 1.12983 0.498749 1.06471 0.498749 0.99894C0.498749 0.933173 0.511724 0.868052 0.53693 0.807307C0.562137 0.746562 0.599079 0.691386 0.645643 0.64494Z" fill="#C1C8CB"/>
</svg>
