<svg width="12" height="12" viewBox="0 0 12 12" fill="none" xmlns="http://www.w3.org/2000/svg">
<g clip-path="url(#clip0_2152_13064)">
<rect width="12" height="12" fill="white"/>
<mask id="path-1-inside-1_2152_13064" fill="white">
<path fill-rule="evenodd" clip-rule="evenodd" d="M1.23444 3.48419C1.26927 3.44927 1.31065 3.42156 1.35621 3.40266C1.40177 3.38375 1.45061 3.37402 1.49994 3.37402C1.54926 3.37402 1.5981 3.38375 1.64366 3.40266C1.68922 3.42156 1.7306 3.44927 1.76544 3.48419L5.99994 7.71944L10.2344 3.48419C10.2693 3.44933 10.3107 3.42167 10.3562 3.4028C10.4018 3.38393 10.4506 3.37422 10.4999 3.37422C10.5492 3.37422 10.5981 3.38393 10.6436 3.4028C10.6892 3.42167 10.7306 3.44933 10.7654 3.48419C10.8003 3.51906 10.828 3.56045 10.8468 3.60601C10.8657 3.65156 10.8754 3.70039 10.8754 3.74969C10.8754 3.799 10.8657 3.84783 10.8468 3.89338C10.828 3.93894 10.8003 3.98033 10.7654 4.01519L6.26544 8.51519C6.2306 8.55012 6.18922 8.57782 6.14366 8.59673C6.0981 8.61563 6.04926 8.62536 5.99994 8.62536C5.95061 8.62536 5.90177 8.61563 5.85621 8.59673C5.81065 8.57782 5.76927 8.55012 5.73444 8.51519L1.23444 4.01519C1.19952 3.98036 1.17181 3.93898 1.1529 3.89342C1.134 3.84786 1.12427 3.79902 1.12427 3.74969C1.12427 3.70037 1.134 3.65153 1.1529 3.60597C1.17181 3.56041 1.19952 3.51903 1.23444 3.48419Z"/>
</mask>
<path fill-rule="evenodd" clip-rule="evenodd" d="M1.23444 3.48419C1.26927 3.44927 1.31065 3.42156 1.35621 3.40266C1.40177 3.38375 1.45061 3.37402 1.49994 3.37402C1.54926 3.37402 1.5981 3.38375 1.64366 3.40266C1.68922 3.42156 1.7306 3.44927 1.76544 3.48419L5.99994 7.71944L10.2344 3.48419C10.2693 3.44933 10.3107 3.42167 10.3562 3.4028C10.4018 3.38393 10.4506 3.37422 10.4999 3.37422C10.5492 3.37422 10.5981 3.38393 10.6436 3.4028C10.6892 3.42167 10.7306 3.44933 10.7654 3.48419C10.8003 3.51906 10.828 3.56045 10.8468 3.60601C10.8657 3.65156 10.8754 3.70039 10.8754 3.74969C10.8754 3.799 10.8657 3.84783 10.8468 3.89338C10.828 3.93894 10.8003 3.98033 10.7654 4.01519L6.26544 8.51519C6.2306 8.55012 6.18922 8.57782 6.14366 8.59673C6.0981 8.61563 6.04926 8.62536 5.99994 8.62536C5.95061 8.62536 5.90177 8.61563 5.85621 8.59673C5.81065 8.57782 5.76927 8.55012 5.73444 8.51519L1.23444 4.01519C1.19952 3.98036 1.17181 3.93898 1.1529 3.89342C1.134 3.84786 1.12427 3.79902 1.12427 3.74969C1.12427 3.70037 1.134 3.65153 1.1529 3.60597C1.17181 3.56041 1.19952 3.51903 1.23444 3.48419Z" fill="#333A3D"/>
<path d="M1.76544 3.48419L1.05744 4.19041L1.05827 4.19124L1.76544 3.48419ZM5.99994 7.71944L5.29277 8.42649L5.99994 9.13378L6.70711 8.42649L5.99994 7.71944ZM10.2344 3.48419L9.52733 2.77709L9.52727 2.77715L10.2344 3.48419ZM10.8754 3.74969H9.87541H10.8754ZM6.26544 8.51519L5.55833 7.80809L5.55744 7.80898L6.26544 8.51519ZM5.73444 8.51519L6.44244 7.80898L6.44154 7.80809L5.73444 8.51519ZM1.23444 4.01519L1.94155 3.30809L1.94065 3.30719L1.23444 4.01519ZM1.94244 4.19041C1.88438 4.24861 1.81541 4.29479 1.73948 4.3263L0.972946 2.47902C0.805895 2.54834 0.654163 2.64993 0.526438 2.77798L1.94244 4.19041ZM1.73948 4.3263C1.66354 4.35781 1.58214 4.37402 1.49994 4.37402V2.37402C1.31908 2.37402 1.14 2.4097 0.972946 2.47902L1.73948 4.3263ZM1.49994 4.37402C1.41773 4.37402 1.33633 4.35781 1.2604 4.3263L2.02693 2.47902C1.85988 2.4097 1.68079 2.37402 1.49994 2.37402V4.37402ZM1.2604 4.3263C1.18446 4.29479 1.11549 4.24861 1.05744 4.19041L2.47344 2.77798C2.34571 2.64993 2.19398 2.54834 2.02693 2.47902L1.2604 4.3263ZM1.05827 4.19124L5.29277 8.42649L6.70711 7.0124L2.47261 2.77715L1.05827 4.19124ZM6.70711 8.42649L10.9416 4.19124L9.52727 2.77715L5.29277 7.0124L6.70711 8.42649ZM10.9415 4.1913C10.8836 4.24929 10.8147 4.29529 10.7389 4.32668L9.97357 2.47892C9.80669 2.54805 9.65505 2.64936 9.52733 2.77709L10.9415 4.1913ZM10.7389 4.32668C10.6632 4.35807 10.582 4.37422 10.4999 4.37422V2.37422C10.3193 2.37422 10.1404 2.4098 9.97357 2.47892L10.7389 4.32668ZM10.4999 4.37422C10.4179 4.37422 10.3367 4.35807 10.2609 4.32668L11.0263 2.47892C10.8594 2.4098 10.6806 2.37422 10.4999 2.37422V4.37422ZM10.2609 4.32668C10.1852 4.29529 10.1163 4.24929 10.0583 4.1913L11.4725 2.77709C11.3448 2.64936 11.1932 2.54805 11.0263 2.47892L10.2609 4.32668ZM10.0583 4.1913C10.0003 4.13331 9.95434 4.06446 9.92295 3.98869L11.7707 3.22332C11.7016 3.05644 11.6003 2.90481 11.4725 2.77709L10.0583 4.1913ZM9.92295 3.98869C9.89156 3.91291 9.87541 3.8317 9.87541 3.74969H11.8754C11.8754 3.56907 11.8398 3.39021 11.7707 3.22332L9.92295 3.98869ZM9.87541 3.74969C9.87541 3.66768 9.89156 3.58647 9.92295 3.5107L11.7707 4.27606C11.8398 4.10918 11.8754 3.93032 11.8754 3.74969H9.87541ZM9.92295 3.5107C9.95434 3.43493 10.0003 3.36608 10.0583 3.30809L11.4725 4.7223C11.6003 4.59458 11.7016 4.44295 11.7707 4.27606L9.92295 3.5107ZM10.0583 3.30809L5.55833 7.80809L6.97254 9.2223L11.4725 4.7223L10.0583 3.30809ZM5.55744 7.80898C5.6155 7.75077 5.68447 7.7046 5.7604 7.67309L6.52693 9.52037C6.69397 9.45105 6.84571 9.34946 6.97344 9.22141L5.55744 7.80898ZM5.7604 7.67309C5.83633 7.64158 5.91773 7.62536 5.99994 7.62536V9.62536C6.1808 9.62536 6.35988 9.58968 6.52693 9.52037L5.7604 7.67309ZM5.99994 7.62536C6.08215 7.62536 6.16355 7.64158 6.23948 7.67309L5.47295 9.52037C5.63999 9.58968 5.81908 9.62536 5.99994 9.62536V7.62536ZM6.23948 7.67309C6.31541 7.7046 6.38438 7.75077 6.44244 7.80898L5.02644 9.22141C5.15417 9.34946 5.3059 9.45105 5.47295 9.52037L6.23948 7.67309ZM6.44154 7.80809L1.94154 3.30809L0.527331 4.7223L5.02733 9.2223L6.44154 7.80809ZM1.94065 3.30719C1.99885 3.36525 2.04503 3.43422 2.07654 3.51015L0.229266 4.27669C0.298584 4.44374 0.400177 4.59547 0.528226 4.72319L1.94065 3.30719ZM2.07654 3.51015C2.10805 3.58608 2.12427 3.66748 2.12427 3.74969H0.124268C0.124268 3.93055 0.159948 4.10964 0.229266 4.27669L2.07654 3.51015ZM2.12427 3.74969C2.12427 3.8319 2.10805 3.9133 2.07654 3.98924L0.229266 3.2227C0.159948 3.38975 0.124268 3.56883 0.124268 3.74969H2.12427ZM2.07654 3.98924C2.04503 4.06517 1.99885 4.13414 1.94065 4.19219L0.528226 2.77619C0.400177 2.90392 0.298584 3.05565 0.229266 3.2227L2.07654 3.98924Z" fill="#333A3D" mask="url(#path-1-inside-1_2152_13064)"/>
</g>
<defs>
<clipPath id="clip0_2152_13064">
<rect width="12" height="12" fill="white"/>
</clipPath>
</defs>
</svg>
