<svg width="16" height="16" viewBox="0 0 16 16" fill="none" xmlns="http://www.w3.org/2000/svg">
<g clip-path="url(#clip0_2152_10617)">
<path fill-rule="evenodd" clip-rule="evenodd" d="M7.64565 4.64494C7.6921 4.59838 7.74728 4.56143 7.80802 4.53623C7.86877 4.51102 7.93389 4.49805 7.99965 4.49805C8.06542 4.49805 8.13054 4.51102 8.19129 4.53623C8.25203 4.56143 8.30721 4.59838 8.35365 4.64494L14.3537 10.6449C14.4475 10.7388 14.5003 10.8662 14.5003 10.9989C14.5003 11.1317 14.4475 11.2591 14.3537 11.3529C14.2598 11.4468 14.1324 11.4996 13.9997 11.4996C13.8669 11.4996 13.7395 11.4468 13.6457 11.3529L7.99965 5.70594L2.35366 11.3529C2.25977 11.4468 2.13243 11.4996 1.99966 11.4996C1.86688 11.4996 1.73954 11.4468 1.64566 11.3529C1.55177 11.2591 1.49902 11.1317 1.49902 10.9989C1.49902 10.8662 1.55177 10.7388 1.64566 10.6449L7.64565 4.64494Z" fill="#C1C8CB"/>
</g>
<defs>
<clipPath id="clip0_2152_10617">
<rect width="16" height="16" fill="white"/>
</clipPath>
</defs>
</svg>
